<svg width="147" height="121" viewBox="0 0 147 121" fill="none" xmlns="http://www.w3.org/2000/svg">
<path d="M118.629 92.1415C118.274 89.9069 117.804 87.6055 117.223 85.2522C116.709 83.1857 116.113 81.0784 115.436 78.9395C113.656 73.3225 111.31 67.4853 108.466 61.5843C107.22 59.0046 105.878 56.4136 104.447 53.8254C103.186 51.5445 101.857 49.2605 100.456 46.991C99.0592 44.7187 97.6188 42.4985 96.1381 40.3335C94.4658 37.8787 92.744 35.4963 90.9821 33.1948C86.9573 27.9343 82.7381 23.1087 78.4381 18.8537C76.8031 17.2335 75.1553 15.6973 73.5016 14.2511C71.6192 12.599 69.7273 11.0659 67.8385 9.66013C55.5078 0.481019 44.4694 -2.27532 36.7508 1.90121C29.0323 6.08052 26.0586 16.4219 28.3708 31.0268C28.7231 33.2614 29.1962 35.5629 29.7804 37.9162C30.2875 39.9827 30.8839 42.0899 31.564 44.2288C33.3446 49.8458 35.6906 55.6861 38.5377 61.584C39.7805 64.1637 41.1218 66.7516 42.553 69.3399C43.8142 71.6239 45.1466 73.9048 46.5438 76.1771C47.941 78.4494 49.3814 80.6695 50.8621 82.8345C52.5374 85.2924 54.2591 87.6748 56.0181 89.976C60.043 95.2365 64.2621 100.059 68.5621 104.314C70.1974 105.934 71.8479 107.473 73.5016 108.919C75.384 110.572 77.2758 112.102 79.1615 113.508C83.6963 116.884 88.0548 119.391 92.1382 121C101.82 118.704 110.759 114.659 118.552 109.244C119.64 104.544 119.68 98.7845 118.629 92.1415ZM111.686 108.19C110.787 111.836 109.133 114.334 106.768 115.612C104.407 116.893 101.272 116.986 97.4546 115.896C93.3185 114.711 88.4903 112.12 83.4889 108.396C81.8074 107.143 80.1226 105.781 78.4379 104.317C76.7871 102.88 75.1364 101.344 73.4983 99.7176C70.6853 96.9266 67.9032 93.8715 65.1893 90.5937C63.3779 88.4054 61.5943 86.1187 59.8539 83.7449C57.3284 80.3045 54.8895 76.6816 52.5711 72.9137C50.2497 69.1457 48.123 65.3548 46.2095 61.584C44.8865 58.9841 43.6653 56.3931 42.5527 53.8282C40.8804 49.985 39.4491 46.1968 38.2776 42.5188C37.5975 40.374 37.0011 38.2698 36.5032 36.2092C35.99 34.1108 35.5728 32.0587 35.2575 30.0676C34.3179 24.1464 34.3395 18.9294 35.3131 14.9789C36.2127 11.3327 37.8694 8.83437 40.231 7.55619C41.5075 6.86634 43.0068 6.51851 44.7161 6.51851C46.1752 6.51851 47.7887 6.77065 49.5444 7.27493C53.6805 8.4574 58.5088 11.0515 63.5101 14.7731C65.1916 16.0252 66.8794 17.3874 68.5612 18.857C70.2149 20.2916 71.8627 21.8278 73.4977 23.451C76.3138 26.242 79.0958 29.2971 81.813 32.578C83.6244 34.7662 85.408 37.053 87.1484 39.4268C89.6706 42.8671 92.1098 46.49 94.4279 50.2549C96.7493 54.0229 98.8761 57.8139 100.79 61.5846C102.112 64.1872 103.334 66.7786 104.446 69.3435C106.119 73.1866 107.55 76.972 108.721 80.6499C109.402 82.7946 109.998 84.8988 110.499 86.9595C111.009 89.0578 111.426 91.1099 111.742 93.101C112.682 99.0222 112.66 104.239 111.686 108.19Z" fill="#FF512F"/>
<path d="M124.289 40.2204C122.048 39.3915 119.686 38.6235 117.22 37.9162C115.056 37.2987 112.812 36.7278 110.496 36.2091C104.419 34.8469 97.8536 33.8325 90.9819 33.1948C87.9804 32.9136 84.9171 32.708 81.8135 32.5774C79.0747 32.4587 76.2989 32.3976 73.5015 32.3976C70.7041 32.3976 67.928 32.4584 65.1862 32.5774C62.0797 32.7078 59.0163 32.9166 56.0148 33.1948C49.1432 33.8325 42.5807 34.8469 36.5034 36.2091C34.1882 36.7278 31.944 37.299 29.78 37.9162C27.3134 38.6204 24.9517 39.3915 22.7105 40.2204C8.06796 45.6401 0 53.2282 0 61.584C0 69.9399 8.06796 77.5279 22.7108 82.9507C24.952 83.7795 27.3104 84.5476 29.7771 85.2549C31.9408 85.8724 34.185 86.4432 36.5005 86.9592C42.5778 88.3242 49.1432 89.3358 56.018 89.9762C59.0196 90.2545 62.0829 90.4603 65.1895 90.5937C67.9283 90.7124 70.7041 90.7704 73.5015 90.7704C76.2989 90.7704 79.0717 90.7124 81.8105 90.5937C84.9171 90.4603 87.9775 90.2545 90.9819 89.9762C97.8536 89.3385 104.422 88.3242 110.5 86.9592C112.815 86.4405 115.059 85.8724 117.223 85.2522C119.687 84.5479 122.048 83.7798 124.289 82.9507C138.935 77.5279 147 69.9401 147 61.584C147 53.2282 138.935 45.6401 124.289 40.2204ZM135.64 69.2877C132.481 72.0557 127.671 74.6786 121.733 76.8786C119.733 77.6175 117.631 78.3074 115.436 78.9392C113.281 79.5625 111.04 80.1334 108.722 80.6493C104.737 81.5391 100.524 82.2695 96.1377 82.8348C93.2134 83.2145 90.2119 83.5188 87.1485 83.7421C82.7066 84.0755 78.141 84.2436 73.5012 84.2436C68.8613 84.2436 64.2957 84.0755 59.8538 83.7451C56.7905 83.5191 53.786 83.2148 50.8617 82.835C46.4754 82.2697 42.2621 81.5394 38.2775 80.6496C35.9591 80.1336 33.7182 79.5628 31.5636 78.9395C29.3688 78.3076 27.2669 77.6178 25.2668 76.8788C19.3288 74.6789 14.5189 72.056 11.3597 69.288C8.44159 66.7344 6.96095 64.1434 6.96095 61.5843C6.96095 59.0252 8.44159 56.4339 11.3597 53.8806C14.5189 51.1126 19.3285 48.4897 25.2668 46.2897C27.2666 45.5508 29.3688 44.861 31.5636 44.2291C33.7182 43.6058 35.9591 43.035 38.2775 42.519C42.2621 41.6292 46.4754 40.8988 50.8617 40.3335C53.786 39.9538 56.7905 39.6495 59.8538 39.4234C64.2957 39.0931 68.8613 38.925 73.5012 38.925C78.141 38.925 82.7066 39.0931 87.1485 39.4265C90.2119 39.6498 93.2134 39.9541 96.1377 40.3338C100.524 40.8991 104.737 41.6295 108.722 42.5193C111.04 43.0352 113.281 43.6061 115.436 44.2294C117.631 44.8612 119.732 45.5511 121.733 46.29C127.671 48.4899 132.481 51.1129 135.64 53.8809C138.558 56.4344 140.038 59.0254 140.038 61.5846C140.038 64.1434 138.558 66.7344 135.64 69.2877Z" fill="#FF512F"/>
<path d="M110.249 1.90121C102.531 -2.27532 91.4921 0.481019 79.1615 9.66013C77.2759 11.0659 75.384 12.599 73.5016 14.2511C71.8479 15.6973 70.1972 17.2363 68.5621 18.8564C64.2622 23.1112 60.043 27.934 56.0152 33.1946C54.2565 35.4957 52.5345 37.8784 50.8624 40.3333C49.3818 42.4982 47.9414 44.7184 46.5441 46.9907C45.1469 49.263 43.8148 51.5439 42.5534 53.8279C41.1221 56.4161 39.7805 59.0071 38.538 61.5837C35.6909 67.4848 33.345 73.322 31.5643 78.939C30.8842 81.0809 30.2878 83.1879 29.7775 85.2544C29.1965 87.608 28.7235 89.9064 28.3711 92.1409C27.32 98.7812 27.3603 104.54 28.4483 109.241C36.2412 114.658 45.1806 118.704 54.8624 121C58.9458 119.391 63.3043 116.884 67.8391 113.508C69.7277 112.102 71.6195 110.569 73.5022 108.919C75.1559 107.473 76.8037 105.937 78.4388 104.317C82.7355 100.062 86.9579 95.2362 90.9827 89.9757C92.7414 87.6743 94.4635 85.2918 96.1388 82.8342C97.6194 80.6693 99.0598 78.4491 100.457 76.1768C101.857 73.9073 103.186 71.6264 104.448 69.3424C105.879 66.7541 107.221 64.1631 108.466 61.5835C111.31 55.6852 113.657 49.8452 115.437 44.2283C116.114 42.0894 116.71 39.9821 117.22 37.9156C117.805 35.562 118.274 33.2609 118.63 31.0263C120.941 16.4219 117.968 6.08052 110.249 1.90121ZM108.722 42.5188C107.551 46.1968 106.12 49.982 104.447 53.8251C103.334 56.3901 102.113 58.9814 100.79 61.584C98.877 65.3548 96.7502 69.1457 94.4288 72.9137C92.1104 76.6786 89.6716 80.3015 87.1493 83.7418C85.4059 86.1184 83.6224 88.4052 81.811 90.5934C79.097 93.8715 76.315 96.9263 73.499 99.7173C71.8639 101.34 70.2161 102.876 68.5624 104.314C66.8809 105.781 65.1932 107.143 63.5113 108.395C58.51 112.119 53.6814 114.71 49.5457 115.896C45.7282 116.986 42.5936 116.893 40.232 115.612C37.8703 114.334 36.2134 111.835 35.314 108.189C34.3404 104.239 34.3185 99.0217 35.2584 93.1004C35.5738 91.1094 35.9909 89.0573 36.5009 86.9589C37.0018 84.8982 37.5981 82.794 38.2783 80.6493C39.4498 76.9712 40.881 73.183 42.5534 69.3399C43.6663 66.7749 44.8872 64.1836 46.2101 61.584C48.1236 57.8133 50.2503 54.0223 52.5717 50.2544C54.8902 46.4864 57.329 42.8635 59.8546 39.4232C61.5949 37.0493 63.3753 34.7626 65.1866 32.5774C67.9039 29.2965 70.6859 26.2417 73.4987 23.4504C75.137 21.8244 76.7877 20.2883 78.4382 18.8537C80.123 17.3871 81.8074 16.0249 83.4892 14.7728C88.4906 11.0515 93.3192 8.4574 97.4549 7.27465C99.2107 6.77037 100.824 6.51823 102.283 6.51823C103.993 6.51823 105.495 6.86606 106.768 7.55591C109.133 8.83409 110.787 11.3325 111.686 14.9786C112.66 18.9291 112.682 24.1461 111.742 30.0674C111.427 32.0584 111.009 34.1105 110.496 36.2089C109.999 38.2695 109.402 40.3738 108.722 42.5188Z" fill="#FF512F"/>
<path d="M73.5017 74.5366C81.1311 74.5366 87.3159 68.7376 87.3159 61.584C87.3159 54.4305 81.1311 48.6314 73.5017 48.6314C65.8723 48.6314 59.6875 54.4305 59.6875 61.584C59.6875 68.7376 65.8723 74.5366 73.5017 74.5366Z" fill="#FFDCD5"/>
</svg>
